<?xml version="1.0" encoding="iso-8859-1"?>
<!-- Generator: Adobe Illustrator 19.0.0, SVG Export Plug-In . SVG Version: 6.00 Build 0)  -->
<svg xmlns="http://www.w3.org/2000/svg" xmlns:xlink="http://www.w3.org/1999/xlink" version="1.1" id="Capa_1" x="0px" y="0px" viewBox="0 0 512 512" style="enable-background:new 0 0 512 512;" xml:space="preserve" width="512px" height="512px">
<g>
	<g>
		<path d="M96,277.333H42.667C36.779,277.333,32,282.112,32,288s4.779,10.667,10.667,10.667H96c13.909,0,25.771,8.917,30.187,21.333    H32c-5.888,0-10.667,4.779-10.667,10.667S26.112,341.333,32,341.333h106.667c5.888,0,10.667-4.779,10.667-10.667    C149.333,301.269,125.397,277.333,96,277.333z" fill="#fff"/>
	</g>
</g>
<g>
	<g>
		<path d="M338.795,281.109c-2.005-2.411-4.992-3.776-8.128-3.776H181.333c-3.136,0-6.123,1.365-8.128,3.776    c-2.027,2.389-2.901,5.547-2.389,8.64l10.667,64c0.853,5.141,5.291,8.917,10.517,8.917h128c5.227,0,9.664-3.776,10.517-8.917    l10.667-64C341.696,286.656,340.821,283.499,338.795,281.109z M310.955,341.333H201.024l-7.104-42.667h124.139L310.955,341.333z" fill="#fff"/>
	</g>
</g>
<g>
	<g>
		<path d="M84.224,197.888l-21.333-42.667c-1.323-2.624-3.648-4.587-6.464-5.44c-2.453-0.747-24.469-6.891-40.96,5.333    C5.205,162.731,0,175.147,0,192c0,20.011,32.277,28.544,51.541,31.851c0.576,0.107,1.195,0.149,1.792,0.149    c1.643,0,3.285-0.384,4.779-1.131l21.333-10.667C84.715,209.557,86.869,203.157,84.224,197.888z M51.776,202.197    c-14.123-2.859-28.501-8.171-30.443-10.197c0-9.707,2.283-16.32,6.784-19.712c3.435-2.581,8.107-3.349,12.395-3.349    c2.005,0,3.925,0.171,5.568,0.405l14.272,28.565L51.776,202.197z" fill="#fff"/>
	</g>
</g>
<g>
	<g>
		<path d="M446.763,197.013c-15.637-50.048-53.675-108.395-79.317-121.216C352.875,68.501,298.24,64,256,64    s-96.875,4.501-111.424,11.776c-25.643,12.821-63.701,71.168-79.317,121.216C34.944,228.011,21.333,280.768,21.333,320    c0,22.613,2.155,75.861,21.333,100.011v38.656c0,17.643,14.357,32,32,32H96c17.643,0,32-14.357,32-32v-19.861    c24.299,2.987,80.427,9.195,128,9.195s103.701-6.208,128-9.195v19.861c0,17.643,14.357,32,32,32h21.333c17.643,0,32-14.357,32-32    v-38.656c19.179-24.149,21.333-77.397,21.333-100.011C490.667,280.768,477.056,228.011,446.763,197.013z M451.115,408.448    C449.131,410.453,448,413.163,448,416v42.667c0,5.888-4.779,10.667-10.667,10.667H416c-5.888,0-10.667-4.779-10.667-10.667v-32    c0-3.093-1.323-6.016-3.648-8.043c-1.963-1.707-4.459-2.624-7.019-2.624c-0.469,0-0.96,0.021-1.451,0.107    c-0.768,0.107-77.333,10.56-137.216,10.56s-136.448-10.453-137.216-10.56c-3.072-0.448-6.144,0.491-8.469,2.517    c-2.304,2.027-3.648,4.949-3.648,8.043v32c0,5.888-4.779,10.667-10.667,10.667H74.667c-5.888,0-10.667-4.779-10.667-10.667V416    c0-2.837-1.131-5.547-3.115-7.552C49.984,397.568,42.667,362.027,42.667,320c0-34.432,12.331-83.435,39.424-109.675    c1.301-1.28,2.283-2.859,2.795-4.608c15.253-51.115,52.501-102.485,69.227-110.848c7.595-3.797,52.117-9.536,101.888-9.536    s94.293,5.739,101.888,9.536c16.725,8.363,53.973,59.733,69.227,110.848c0.512,1.749,1.472,3.328,2.795,4.608    c27.093,26.24,39.424,75.243,39.424,109.675C469.333,362.027,462.016,397.568,451.115,408.448z" fill="#fff"/>
	</g>
</g>
<g>
	<g>
		<path d="M447.979,201.813c-0.469-5.867-5.653-10.133-11.477-9.792c-1.365,0.107-136.085,10.645-180.501,10.645    c-44.395,0-179.136-10.539-180.501-10.645c-5.739-0.32-11.008,3.947-11.477,9.813c-0.448,5.867,3.947,11.008,9.813,11.477    C79.403,213.739,210.773,224,256,224s176.597-10.261,182.187-10.709C444.053,212.821,448.448,207.68,447.979,201.813z" fill="#fff"/>
	</g>
</g>
<g>
	<g>
		<path d="M480,320h-94.187c4.416-12.416,16.277-21.333,30.187-21.333h53.333c5.888,0,10.667-4.779,10.667-10.667    s-4.779-10.667-10.667-10.667H416c-29.397,0-53.333,23.936-53.333,53.333c0,5.888,4.779,10.667,10.667,10.667H480    c5.888,0,10.667-4.779,10.667-10.667S485.888,320,480,320z" fill="#fff"/>
	</g>
</g>
<g>
	<g>
		<path d="M496.533,155.115c-16.491-12.245-38.507-6.101-40.96-5.333c-2.816,0.853-5.141,2.816-6.464,5.44l-21.333,42.667    c-2.624,5.269-0.491,11.669,4.779,14.315l21.333,10.667c1.493,0.747,3.136,1.131,4.779,1.131c0.597,0,1.216-0.043,1.792-0.149    C479.723,220.544,512,212.011,512,192C512,175.147,506.795,162.731,496.533,155.115z M460.224,202.176l-8.576-4.288l14.272-28.544    c5.184-0.747,12.949-0.832,17.963,2.944c4.501,3.392,6.784,10.005,7.125,18.155C488.747,193.92,474.347,199.317,460.224,202.176z" fill="#fff"/>
	</g>
</g>
<g>
	<g>
		<path d="M119.061,416.149l-64-10.667c-5.803-1.024-11.307,2.965-12.267,8.768c-0.981,5.803,2.965,11.307,8.768,12.267l64,10.667    c0.597,0.107,1.195,0.149,1.771,0.149c5.141,0,9.664-3.691,10.496-8.917C128.811,422.613,124.864,417.109,119.061,416.149z" fill="#fff"/>
	</g>
</g>
<g>
	<g>
		<path d="M469.184,414.251c-0.96-5.803-6.464-9.792-12.267-8.768l-64,10.667c-5.803,0.96-9.728,6.464-8.768,12.267    c0.875,5.227,5.397,8.917,10.517,8.917c0.576,0,1.152-0.043,1.749-0.149l64-10.667    C466.219,425.557,470.144,420.053,469.184,414.251z" fill="#fff"/>
	</g>
</g>
<g>
	<g>
		<path d="M340.224,69.888l-15.445-30.869c-5.461-10.901-16.427-17.685-28.629-17.685h-80.299c-12.203,0-23.168,6.784-28.608,17.685    l-15.445,30.869c-2.645,5.269-0.512,11.691,4.757,14.315c5.291,2.624,11.669,0.512,14.315-4.757l15.445-30.891    c1.813-3.627,5.461-5.888,9.536-5.888h80.299c4.075,0,7.723,2.261,9.515,5.909l15.445,30.869c1.877,3.733,5.632,5.888,9.557,5.888    c1.621,0,3.243-0.363,4.779-1.131C340.715,81.557,342.869,75.157,340.224,69.888z" fill="#fff"/>
	</g>
</g>
<g>
</g>
<g>
</g>
<g>
</g>
<g>
</g>
<g>
</g>
<g>
</g>
<g>
</g>
<g>
</g>
<g>
</g>
<g>
</g>
<g>
</g>
<g>
</g>
<g>
</g>
<g>
</g>
<g>
</g>
</svg>
